<?xml version="1.0" encoding="utf-8"?>
<!-- Generator: Adobe Illustrator 27.3.1, SVG Export Plug-In . SVG Version: 6.00 Build 0)  -->
<svg version="1.1" id="Layer_1" xmlns="http://www.w3.org/2000/svg" xmlns:xlink="http://www.w3.org/1999/xlink" x="0px" y="0px"
	 viewBox="0 0 151.1 29.9" style="enable-background:new 0 0 151.1 29.9;" xml:space="preserve">
<style type="text/css">
	.st0{fill:url(#SVGID_1_);}
	.st1{fill:#FFFFFF;}
</style>
<g>
	
		<radialGradient id="SVGID_1_" cx="-1751.0054" cy="-129.53" r="1" gradientTransform="matrix(8.572528e-16 14 -14 8.572528e-16 -1798 24529)" gradientUnits="userSpaceOnUse">
		<stop  offset="0" style="stop-color:#304FFE"/>
		<stop  offset="1" style="stop-color:#3D5AFE"/>
	</radialGradient>
	<circle class="st0" cx="15.5" cy="14.9" r="14"/>
	<g>
		<path class="st1" d="M8.3,7.8c3-3,7.5-3.7,11.2-2.1l-1.9,1.9c-2.6-0.7-5.5-0.1-7.5,1.9c-2.7,2.7-2.9,6.9-0.8,9.8l2.9-2.9l1.7,1.7
			l-4.6,4.6C9,22.6,8.6,22.3,8.4,22C4.4,18.1,4.4,11.7,8.3,7.8L8.3,7.8z"/>
		<path class="st1" d="M11.5,24.2c3.7,1.6,8.1,0.9,11.1-2.1c3.9-3.9,3.9-10.3,0-14.3C22.3,7.5,22,7.2,21.7,7l-4.6,4.6l1.7,1.7
			l2.9-2.9c2.1,3,1.9,7.1-0.8,9.8c-2,2-4.9,2.7-7.5,1.9L11.5,24.2L11.5,24.2z"/>
		<path class="st1" d="M17.2,14.9l-1.7-1.7l-1.7,1.7l1.7,1.7L17.2,14.9z"/>
		<path class="st1" d="M12.1,9.9l1.7,1.7l-1.7,1.7l-1.7-1.7L12.1,9.9z"/>
		<path class="st1" d="M20.5,18.3l-1.7-1.7l-1.7,1.7l1.7,1.7L20.5,18.3z"/>
	</g>
</g>
<g>
	<g>
		<path class="st1" d="M43.2,22.7h-5.4V8.2h5.4c1.5,0,2.8,0.3,3.8,0.9c1.1,0.6,1.9,1.4,2.5,2.5c0.6,1.1,0.9,2.4,0.9,3.9
			c0,1.5-0.3,2.8-0.9,3.9c-0.6,1.1-1.4,1.9-2.5,2.5C45.9,22.4,44.6,22.7,43.2,22.7z M41.3,19.7H43c0.8,0,1.5-0.1,2.1-0.4
			c0.6-0.3,1-0.7,1.3-1.4c0.3-0.6,0.4-1.5,0.4-2.5c0-1-0.1-1.9-0.4-2.5c-0.3-0.6-0.7-1.1-1.3-1.3s-1.3-0.4-2.1-0.4h-1.7V19.7z"/>
		<path class="st1" d="M57.7,8.2l2.7,4.6h0.1l2.7-4.6h3.9l-4.4,7.3l4.5,7.3h-4l-2.7-4.6h-0.1l-2.7,4.6h-4l4.5-7.3l-4.4-7.3H57.7z"/>
		<path class="st1" d="M79.1,12c-0.1-0.7-0.4-1.2-0.9-1.6s-1.2-0.6-2.1-0.6c-0.6,0-1.1,0.1-1.5,0.3s-0.8,0.4-1,0.8
			c-0.2,0.3-0.4,0.7-0.4,1.1c0,0.3,0.1,0.6,0.2,0.9s0.4,0.5,0.6,0.6c0.3,0.2,0.6,0.3,0.9,0.4c0.3,0.1,0.6,0.2,0.9,0.3l1.4,0.4
			c0.5,0.1,0.9,0.3,1.4,0.5c0.5,0.2,0.9,0.4,1.4,0.8c0.4,0.3,0.8,0.7,1,1.2c0.3,0.5,0.4,1,0.4,1.7c0,0.8-0.2,1.6-0.6,2.2
			c-0.4,0.6-1,1.1-1.8,1.5C78.1,22.8,77.1,23,76,23c-1.1,0-2-0.2-2.8-0.5c-0.8-0.3-1.4-0.8-1.9-1.5c-0.5-0.6-0.7-1.4-0.7-2.3h2.2
			c0,0.5,0.2,1,0.5,1.3c0.3,0.3,0.7,0.6,1.2,0.8c0.5,0.2,1,0.3,1.6,0.3c0.6,0,1.2-0.1,1.7-0.3c0.5-0.2,0.9-0.5,1.1-0.8
			s0.4-0.8,0.4-1.2c0-0.4-0.1-0.8-0.4-1.1c-0.2-0.3-0.6-0.5-1-0.7c-0.4-0.2-0.9-0.3-1.4-0.5L74.7,16c-1.2-0.3-2.1-0.8-2.8-1.4
			c-0.7-0.6-1-1.4-1-2.4c0-0.8,0.2-1.6,0.7-2.2c0.5-0.6,1.1-1.1,1.8-1.5C74.3,8.1,75.1,8,76.1,8c1,0,1.9,0.2,2.6,0.5
			c0.8,0.3,1.4,0.8,1.8,1.4c0.4,0.6,0.7,1.3,0.7,2.1H79.1z"/>
		<path class="st1" d="M87.9,8.2v14.5h-2.2V8.2H87.9z"/>
		<path class="st1" d="M102.7,12.8c-0.1-0.4-0.3-0.8-0.5-1.2s-0.5-0.6-0.8-0.9c-0.3-0.2-0.7-0.4-1.1-0.6C99.9,10,99.4,10,98.9,10
			c-0.8,0-1.6,0.2-2.2,0.6s-1.2,1-1.6,1.9c-0.4,0.8-0.6,1.8-0.6,3c0,1.2,0.2,2.2,0.6,3c0.4,0.8,0.9,1.4,1.6,1.9
			c0.7,0.4,1.4,0.6,2.3,0.6c0.8,0,1.5-0.2,2.1-0.5c0.6-0.3,1-0.8,1.4-1.4s0.5-1.3,0.5-2.1l0.6,0.1h-4.2v-1.8h5.7v1.7
			c0,1.2-0.3,2.3-0.8,3.2c-0.5,0.9-1.2,1.6-2.1,2.1c-0.9,0.5-2,0.7-3.1,0.7c-1.3,0-2.5-0.3-3.5-0.9c-1-0.6-1.8-1.5-2.3-2.6
			c-0.6-1.1-0.8-2.4-0.8-4c0-1.2,0.2-2.2,0.5-3.1s0.8-1.7,1.4-2.4c0.6-0.6,1.3-1.1,2.1-1.5S98,8,98.9,8c0.8,0,1.5,0.1,2.2,0.3
			c0.7,0.2,1.3,0.6,1.8,1c0.5,0.4,1,0.9,1.3,1.5c0.3,0.6,0.6,1.2,0.7,1.9H102.7z"/>
		<path class="st1" d="M121.3,8.2v14.5h-2L111.9,12h-0.1v10.7h-2.2V8.2h2l7.4,10.7h0.1V8.2H121.3z"/>
		<path class="st1" d="M127.5,22.7h-2.3l5.2-14.5h2.5l5.2,14.5h-2.3l-4.1-11.9h-0.1L127.5,22.7z M127.9,17h7.6v1.8h-7.6V17z"/>
		<path class="st1" d="M142,22.7V8.2h2.2v12.7h6.6v1.9H142z"/>
	</g>
</g>
</svg>
